<svg width="157" height="166" viewBox="0 0 157 166" fill="none" xmlns="http://www.w3.org/2000/svg">
<path d="M106.447 124.859C103.981 126.333 101.966 127.813 99.7108 128.512C89.1808 131.774 86.3571 137.197 89.8095 148.06C92.0232 155.026 88.805 162.3 82.5669 164.431C75.4751 166.854 68.5404 163.502 65.9645 156.407C63.7416 150.284 67.7826 142.605 74.2691 140.626C86.4629 136.905 88.8592 132.448 85.2555 120.191C83.54 114.356 85.7337 108.246 90.9129 105.323C96.3071 102.279 101.514 102.702 106.063 107.136C111.074 112.019 111.231 116.941 106.447 124.859Z" fill="currentColor"/>
<path d="M40.0564 69.8121C46.7619 71.0948 51.0851 74.4365 51.9156 81.0085C52.583 86.2899 50.5249 90.5177 45.9147 93.3651C41.2717 96.233 36.6798 96.031 32.3043 92.8983C27.4659 89.4343 25.6877 84.6533 27.4271 78.9392C29.4337 72.3472 28.7637 66.4866 22.7992 62.4804C20.3525 60.837 17.0296 60.5235 14.1256 59.5442C7.49096 57.3067 4.07707 51.8754 5.12805 45.3021C6.04509 39.5665 11.203 35.1718 17.181 35.0325C23.61 34.8828 28.5899 38.727 29.8513 45.2696C30.2476 47.3254 29.9303 49.6541 29.4184 51.7284C27.0536 61.31 30.0879 66.8566 40.0564 69.8121Z" fill="currentColor"/>
<path d="M70.993 51.7077C67.5854 59.6293 63.0512 62.6309 56.7672 61.546C50.7152 60.5011 46.4396 55.6797 46.2061 49.6366C45.9481 42.9616 49.4663 38.6545 56.9132 36.5283C66.422 33.8134 69.7601 27.2388 66.4908 17.6644C63.9709 10.2848 67.0078 2.95133 73.4982 0.742801C80.535 -1.65165 87.9192 1.93025 90.093 8.79259C92.3089 15.7881 88.1238 22.5671 80.2184 24.7871C70.4874 27.5198 67.1416 33.8241 70.0437 43.4517C70.7873 45.9186 70.7812 48.6129 70.993 51.7077Z" fill="currentColor"/>
<path d="M141.103 59.6529C136.805 58.5545 132.195 58.3306 129.339 55.9714C120.147 48.38 115.484 48.2944 106.917 57.1412C102.067 62.1498 96.1625 63.1579 90.7689 59.8983C85.6806 56.8233 83.3342 50.4597 85.2395 44.9028C87.0984 39.4819 92.9619 35.5954 98.8413 36.7247C101.671 37.2683 104.636 38.913 106.787 40.885C114.799 48.2292 121.053 48.3049 128.159 40.1313C132.306 35.3607 137.198 33.6961 142.921 35.7818C148.136 37.6822 151.156 41.9496 151.056 47.561C150.946 53.7026 147.793 57.9714 141.103 59.6529Z" fill="currentColor"/>
<path d="M71.0703 113.422C72.0526 120.5 69.2606 125.048 63.3513 127.694C58.0555 130.065 53.5024 128.485 49.4975 124.665C41.0359 116.595 35.3802 116.818 27.2825 125.656C23.0365 130.29 17.8589 131.568 12.3239 129.009C6.79259 126.452 4.15812 121.669 5.1772 115.436C6.16004 109.424 10.1996 105.612 15.8967 105.488C19.6224 105.407 24.1421 107.151 27.024 109.598C35.0436 116.405 41.1547 116.613 48.0248 109.085C56.1757 100.153 65.9431 101.79 71.0703 113.422Z" fill="currentColor"/>
<path d="M133.943 129.466C126.051 124.136 124.786 120.927 126.866 112.485C129.117 103.354 125.005 97.1841 115.432 95.3136C109.165 94.089 104.907 90.6523 104.144 84.0536C103.419 77.7898 106.327 73.4111 112.046 70.8896C117.775 68.3634 123.082 70.034 126.062 74.7714C128.137 78.0717 128.817 83.1442 128.17 87.1044C126.53 97.1397 129.285 102.371 139.018 104.783C147.611 106.912 152.174 112.579 150.948 119.601C149.628 127.166 143.981 130.616 133.943 129.466Z" fill="currentColor"/>
<ellipse cx="42.968" cy="20.4598" rx="7.968" ry="7.99254" fill="currentColor"/>
<ellipse cx="148.968" cy="81.4598" rx="7.968" ry="7.99254" fill="currentColor"/>
<ellipse cx="112.968" cy="143.46" rx="7.968" ry="7.99254" fill="currentColor"/>
<ellipse cx="42.968" cy="142.46" rx="7.968" ry="7.99254" fill="currentColor"/>
<ellipse cx="7.968" cy="81.4598" rx="7.968" ry="7.99254" fill="currentColor"/>
<ellipse cx="112.968" cy="21.4598" rx="7.968" ry="7.99254" fill="currentColor"/>
<ellipse cx="79.968" cy="80.9925" rx="7.968" ry="7.99254" fill="currentColor"/>
</svg>